<svg width="55" height="28" viewBox="0 0 55 28" fill="none" xmlns="http://www.w3.org/2000/svg"><path d="M23.3825 27.2613L26.8706 23.3817L24.3079 21.2105C25.7316 19.1462 26.5147 16.6547 26.5147 14.0564C26.5147 6.90231 20.9978 1.1719 13.3098 1.1719C5.62181 1.1719 0.0337677 6.9735 0.0337677 14.0564C0.0337677 21.2105 5.55062 26.941 13.2386 26.941C16.0149 26.941 18.5419 26.1579 20.6419 24.8054L23.3825 27.2613ZM13.3098 21.8868C8.89633 21.8868 5.76418 18.3275 5.76418 14.0564C5.76418 9.71413 8.82514 6.22605 13.2386 6.22605C17.6521 6.22605 20.7843 9.78531 20.7843 14.0564C20.7843 15.3734 20.5707 16.5123 20.108 17.5445L16.0149 13.8429L12.5268 17.7581L16.5843 21.2105C15.6233 21.6377 14.52 21.8868 13.3098 21.8868Z" fill="#000"/><path d="M39.3141 26.6918H44.1547L54.8659 -3.24249e-05H48.8514L41.8056 19.1462L36.8224 5.71374H30.8079L39.3141 26.6918Z" fill="#ED2D23"/><path d="M12.4665 17.7379L15.9716 13.7636L26.8754 23.365L23.3923 27.3001L12.4665 17.7379Z" fill="#0061D9"/></svg>